<?xml version="1.0" encoding="UTF-8" standalone="no"?>
<svg
   xmlns:dc="http://purl.org/dc/elements/1.1/"
   xmlns:cc="http://creativecommons.org/ns#"
   xmlns:rdf="http://www.w3.org/1999/02/22-rdf-syntax-ns#"
   xmlns:svg="http://www.w3.org/2000/svg"
   xmlns="http://www.w3.org/2000/svg"
   xmlns:xlink="http://www.w3.org/1999/xlink"
   xmlns:sodipodi="http://sodipodi.sourceforge.net/DTD/sodipodi-0.dtd"
   xmlns:inkscape="http://www.inkscape.org/namespaces/inkscape"
   width="300pt"
   height="300pt"
   viewBox="0 0 262 100"
   version="1.1"
   id="svg3700"
   sodipodi:docname="rudn-logo-ink.svg"
   inkscape:version="0.92.1 r15371">
  <metadata
     id="metadata3704">
    <rdf:RDF>
      <cc:Work
         rdf:about="">
        <dc:format>image/svg+xml</dc:format>
        <dc:type
           rdf:resource="http://purl.org/dc/dcmitype/StillImage" />
      </cc:Work>
    </rdf:RDF>
  </metadata>
  <sodipodi:namedview
     pagecolor="#ffffff"
     bordercolor="#666666"
     borderopacity="1"
     objecttolerance="10"
     gridtolerance="10"
     guidetolerance="10"
     inkscape:pageopacity="0"
     inkscape:pageshadow="2"
     inkscape:window-width="1858"
     inkscape:window-height="1060"
     id="namedview3702"
     showgrid="false"
     inkscape:zoom="2.2275"
     inkscape:cx="200"
     inkscape:cy="200"
     inkscape:window-x="-8"
     inkscape:window-y="-8"
     inkscape:window-maximized="1"
     inkscape:current-layer="svg3700" />
  <title
     id="title3680">859571CB-A67F-4920-94BA-3E3500A17C63</title>
  <defs
     id="defs3683">
    <path
       id="a"
       d="M83.82 78.163H0V.15h83.82z" />
  </defs>
  <g
     id="g3698"
     transform="matrix(2.8242413,0,0,2.77495,1.130308,-104.37974)"
     style="fill:none;fill-rule:evenodd">
    <path
       d="M 47.697,80.69 C 54.883,79.99 60.949,73.71 63.55,65.027 A 0.592,0.592 0 0 0 63.058,64.281 C 58.176,63.54 52.971,63.121 47.633,63.062 a 0.603,0.603 0 0 0 -0.62,0.592 v 16.451 c 0,0.354 0.32,0.621 0.684,0.586 m 6.65,-49.571 c 4.885,2.99 8.727,8.74 10.524,15.85 a 0.484,0.484 0 0 0 0.555,0.364 c 7.03,-1.338 13.249,-3.425 18.009,-6.11 A 0.5,0.5 0 0 0 83.492,40.4 38.898,38.898 0 0 0 78.786,37.305 c -2.462,-1.384 -5.156,-2.589 -8.03,-3.604 v -3.888 c 0,-0.023 -0.006,-0.044 -0.007,-0.067 v -1.675 c 0,-2.246 1.788,-4.074 3.985,-4.074 h 3.118 c 0.017,0 0.031,-0.004 0.047,-0.005 0.016,10e-4 0.031,0.005 0.047,0.005 0.613,0 1.11,-0.508 1.11,-1.135 v -6.127 c 0,-0.627 -0.497,-1.135 -1.11,-1.135 H 56.415 c -0.614,0 -1.11,0.508 -1.11,1.135 v 6.127 c 0,0.627 0.496,1.135 1.11,1.135 0.031,0 0.06,-0.006 0.092,-0.01 0.03,0.004 0.06,0.01 0.092,0.01 h 3.119 c 2.196,0 3.984,1.828 3.984,4.074 v 3.603 A 73.688,73.688 0 0 0 54.64,30.208 c -0.511,-0.051 -0.734,0.643 -0.293,0.913 z M 68.53,28.071 v 2.11 c 0,0.023 0.005,0.044 0.006,0.067 v 2.72 C 68.291,32.893 68.047,32.816 67.8,32.743 v -5.421 c 0.215,-2.118 1.63,-3.873 3.535,-4.551 a 6.377,6.377 0 0 0 -2.805,5.3 z m 8.306,-10.202 v 3.689 h -3.763 c -2.596,0 -4.82,1.643 -5.738,3.964 -0.918,-2.32 -3.142,-3.964 -5.737,-3.964 H 57.524 V 17.869 Z M 65.921,30.191 V 28.07 a 6.369,6.369 0 0 0 -3.017,-5.432 c 2.24,0.584 3.912,2.625 3.987,5.077 -0.001,0.057 -0.008,0.113 -0.008,0.17 v 4.595 c -0.32,-0.09 -0.64,-0.18 -0.962,-0.264 V 30.19 Z"
       id="path3685"
       inkscape:connector-curvature="0"
       style="fill:#0079c1" />
    <path
       d="m 47.446,48.518 c 5.599,-0.055 11.05,-0.534 16.128,-1.387 -2.397,-9.864 -8.878,-17.04 -16.56,-17.423 v 18.377 c 0,0.24 0.195,0.435 0.432,0.433"
       id="path3687"
       inkscape:connector-curvature="0"
       style="fill:#0079c1" />
    <g
       transform="translate(-0.3,15.6)"
       id="g3694">
      <mask
         id="b"
         fill="#fff">
        <use
           xlink:href="#a"
           id="use3689"
           x="0"
           y="0"
           width="100%"
           height="100%" />
      </mask>
      <path
         d="m 83.624,54.988 c -4.858,-2.58 -11.15,-4.58 -18.237,-5.863 a 0.376,0.376 0 0 0 -0.428,0.267 c -1.94,6.959 -5.956,12.532 -11.012,15.324 -0.357,0.197 -0.193,0.732 0.213,0.696 a 78.786,78.786 0 0 0 7.54,-1.043 c -2.286,3.244 -6.019,5.2 -10.1,5.2 H 50.831 A 12.35,12.35 0 0 1 40.39,63.842 c 1.542,0.771 3.177,1.27 4.879,1.438 a 0.595,0.595 0 0 0 0.646,-0.593 V 48.102 c 0,-0.332 -0.275,-0.601 -0.61,-0.597 -2.293,0.025 -4.56,0.125 -6.79,0.287 v -1.298 c 2.237,-0.16 4.509,-0.259 6.806,-0.284 a 0.595,0.595 0 0 0 0.594,-0.591 V 34.917 a 0.595,0.595 0 0 0 -0.594,-0.59 c -2.297,-0.026 -4.57,-0.124 -6.805,-0.284 v -1.299 c 2.267,0.164 4.573,0.265 6.906,0.288 A 0.486,0.486 0 0 0 45.915,32.55 V 14.552 c -2.649,0.132 -5.152,1.057 -7.4,2.595 v -1.569 c 0.36,-0.222 0.724,-0.433 1.094,-0.626 0.27,-0.142 0.144,-0.55 -0.162,-0.523 -0.312,0.026 -0.62,0.061 -0.931,0.09 v -0.02 -2.084 c 0,-2.21 1.82,-4.007 4.056,-4.007 h 3.174 c 0.012,0 0.022,-0.003 0.034,-0.003 0.012,0 0.023,0.003 0.035,0.003 0.624,0 1.13,-0.5 1.13,-1.116 V 1.265 c 0,-0.617 -0.506,-1.116 -1.13,-1.116 h -32.7 c -0.624,0 -1.13,0.5 -1.13,1.116 v 6.027 c 0,0.616 0.506,1.116 1.13,1.116 l 0.012,-10e-4 0.012,10e-4 h 3.174 c 2.236,0 4.055,1.797 4.055,4.007 v 1.587 l -0.002,0.02 v 4.543 a 51.617,51.617 0 0 0 -6.47,2.932 c -1.7,0.924 -3.256,1.91 -4.66,2.947 -0.35,0.259 -0.3,0.79 0.085,0.996 3.128,1.684 6.873,3.12 11.045,4.281 v 1.341 C 15.382,29.703 10.972,27.958 7.443,25.878 L 7.437,25.872 C 2.596,30.006 0,34.848 0,39.94 0,45.081 2.646,49.968 7.579,54.13 a 0.607,0.607 0 0 0 0.685,0.064 c 3.382,-1.877 7.496,-3.464 12.102,-4.721 v 1.339 c -3.94,1.095 -7.498,2.437 -10.515,4 a 0.593,0.593 0 0 0 -0.071,1.016 40.662,40.662 0 0 0 4.116,2.555 c 2.444,1.328 5.113,2.486 7.958,3.468 0.132,0.046 0.265,0.04 0.385,0 3.87,9.547 13.323,16.312 24.351,16.312 h 0.619 c 10.1,0 19.147,-6.318 22.513,-15.722 0.009,-0.025 0.011,-0.05 0.018,-0.076 3.43,-1.084 6.63,-2.415 9.514,-3.982 a 40.188,40.188 0 0 0 4.414,-2.77 0.37,0.37 0 0 0 -0.044,-0.625 z M 36.257,12.415 V 57.4 c 0,7.94 6.538,14.401 14.574,14.401 H 51.6 c 5.52,0 10.504,-3.024 13.004,-7.892 0.027,-0.051 0.045,-0.105 0.063,-0.159 0.185,-0.043 0.367,-0.088 0.552,-0.132 -3.053,6.31 -9.439,10.327 -16.601,10.327 h -0.381 c -10.15,0 -18.41,-8.16 -18.41,-18.19 V 14.012 c 0,-0.055 -0.007,-0.109 -0.008,-0.164 0.09,-3.844 3.275,-6.946 7.187,-6.946 h 2.619 c -2,1.048 -3.368,3.125 -3.368,5.514 z M 44.685,2.381 V 6.008 H 37.006 A 8.1,8.1 0 0 0 29.367,11.376 8.1,8.1 0 0 0 21.729,6.008 H 14.244 V 2.381 Z m 2.524,73.55 H 46.59 c -13.214,0 -23.965,-10.623 -23.965,-23.68 V 14.513 l 0.002,-0.022 v -2.076 c 0,-2.389 -1.367,-4.466 -3.367,-5.514 h 2.469 c 3.911,0 7.097,3.102 7.186,6.946 0,0.055 -0.008,0.109 -0.008,0.164 v 3.159 c 0,0.029 0.011,0.054 0.017,0.081 v 38.505 c 0,10.522 8.664,19.082 19.313,19.082 h 0.38 c 7.764,0 14.66,-4.495 17.726,-11.498 0.22,-0.057 0.44,-0.117 0.66,-0.176 -3.424,7.697 -11.186,12.767 -19.794,12.767 z"
         mask="url(#b)"
         id="path3692"
         inkscape:connector-curvature="0"
         style="fill:#0079c1" />
    </g>
    <path
       d="m 85.426,41.673 a 0.827,0.827 0 0 0 -0.97,-0.097 c -4.86,2.806 -11.286,4.988 -18.57,6.39 a 0.837,0.837 0 0 0 -0.663,0.975 c 0.369,2.06 0.569,4.212 0.569,6.428 0,2.438 -0.238,4.801 -0.681,7.048 -0.09,0.46 0.203,0.903 0.661,0.99 7.113,1.36 13.411,3.462 18.242,6.162 0.305,0.171 0.683,0.137 0.948,-0.092 4.778,-4.145 7.338,-9.002 7.338,-14.107 0,-4.939 -2.396,-9.643 -6.874,-13.696 m -37.816,19.9 c 5.443,0.058 10.753,0.488 15.732,1.249 a 0.6,0.6 0 0 0 0.684,-0.448 c 0.475,-2.194 0.73,-4.512 0.73,-6.909 0,-2.168 -0.212,-4.27 -0.604,-6.277 -0.06,-0.307 -0.366,-0.508 -0.689,-0.459 -5.013,0.773 -10.365,1.21 -15.852,1.268 a 0.589,0.589 0 0 0 -0.597,0.575 V 61 a 0.59,0.59 0 0 0 0.597,0.575"
       id="path3696"
       inkscape:connector-curvature="0"
       style="fill:#0079c1" />
  </g>
</svg>
